<?xml version="1.0" encoding="utf-8"?>
<!-- Generator: Adobe Illustrator 23.0.4, SVG Export Plug-In . SVG Version: 6.00 Build 0)  -->
<svg version="1.1" id="Layer_1" xmlns="http://www.w3.org/2000/svg" xmlns:xlink="http://www.w3.org/1999/xlink" width="50" x="0px" y="0px"
	 viewBox="0 0 300 200" style="enable-background:new 0 0 300 200;" xml:space="preserve">
<style type="text/css">
	.st19{clip-path:url(#SVGID_38_);}
	.st20{clip-path:url(#SVGID_40_);fill:#CACACA;}
	.st21{clip-path:url(#SVGID_42_);}
	.st22{clip-path:url(#SVGID_44_);fill:#CACACA;}
	.st23{clip-path:url(#SVGID_46_);}
	.st24{clip-path:url(#SVGID_48_);fill:#FFFFFF;}
</style>
<g>
	<defs>
		<path id="SVGID_37_" d="M257.68,61.26H41.45V45.73c0-9.65,7.8-17.49,17.39-17.49h181.46c9.59,0,17.39,7.84,17.39,17.49V61.26z
			 M257.68,154.47c0,9.65-7.8,17.49-17.39,17.49H58.84c-9.59,0-17.39-7.84-17.39-17.49v-69.9h216.24V154.47z M240.29,12.7H58.84
			C40.71,12.7,26,27.5,26,45.73v108.73c0,18.24,14.71,33.03,32.84,33.03h181.46c18.13,0,32.84-14.79,32.84-33.03V45.73
			C273.13,27.5,258.42,12.7,240.29,12.7z"/>
	</defs>
	<clipPath id="SVGID_38_">
		<use xlink:href="#SVGID_37_"  style="overflow:visible;"/>
	</clipPath>
	<g class="st19">
		<defs>
			<rect id="SVGID_39_" x="-3903.47" y="-3294.49" width="8390.33" height="5593.55"/>
		</defs>
		<clipPath id="SVGID_40_">
			<use xlink:href="#SVGID_39_"  style="overflow:visible;"/>
		</clipPath>
		<rect x="-8.96" y="-22.26" class="st20" width="317.05" height="244.72"/>
	</g>
</g>
<g>
	<defs>
		<rect id="SVGID_41_" x="32.99" y="82.62" width="230.73" height="90.9"/>
	</defs>
	<clipPath id="SVGID_42_">
		<use xlink:href="#SVGID_41_"  style="overflow:visible;"/>
	</clipPath>
	<g class="st21">
		<defs>
			<rect id="SVGID_43_" x="-3903.47" y="-3294.49" width="8390.33" height="5593.55"/>
		</defs>
		<clipPath id="SVGID_44_">
			<use xlink:href="#SVGID_43_"  style="overflow:visible;"/>
		</clipPath>
		<rect x="-1.97" y="47.66" class="st22" width="300.65" height="160.81"/>
	</g>
</g>
<g>
	<defs>
		<rect id="SVGID_45_" x="165.84" y="82.62" width="90.9" height="34.96"/>
	</defs>
	<clipPath id="SVGID_46_">
		<use xlink:href="#SVGID_45_"  style="overflow:visible;"/>
	</clipPath>
	<g class="st23">
		<defs>
			<rect id="SVGID_47_" x="-3903.47" y="-3294.49" width="8390.33" height="5593.55"/>
		</defs>
		<clipPath id="SVGID_48_">
			<use xlink:href="#SVGID_47_"  style="overflow:visible;"/>
		</clipPath>
		<rect x="130.88" y="47.66" class="st24" width="160.81" height="104.88"/>
	</g>
</g>
</svg>
